<?xml version="1.0" encoding="utf-8"?>
<!-- Generator: Adobe Illustrator 16.0.0, SVG Export Plug-In . SVG Version: 6.00 Build 0)  -->
<!DOCTYPE svg PUBLIC "-//W3C//DTD SVG 1.1//EN" "http://www.w3.org/Graphics/SVG/1.1/DTD/svg11.dtd">
<svg version="1.1" id="Layer_1" xmlns="http://www.w3.org/2000/svg" xmlns:xlink="http://www.w3.org/1999/xlink" x="0px" y="0px"
	 width="20px" height="20px" viewBox="0 0 20 20" enable-background="new 0 0 20 20" xml:space="preserve">
<path fill="#C27DAE" d="M5,7.5V5c0-2.757,2.243-5,5-5s5,2.243,5,5v2.5c0,2.757-2.243,5-5,5S5,10.257,5,7.5z M19.309,16.382
	c-0.215-0.107-5.31-2.632-9.309-2.632s-9.094,2.525-9.309,2.632C0.268,16.593,0,17.026,0,17.5v1.25C0,19.44,0.56,20,1.25,20h17.5
	c0.69,0,1.25-0.56,1.25-1.25V17.5C20,17.026,19.733,16.593,19.309,16.382z"/>
</svg>
