<?xml version="1.0" encoding="utf-8"?>
<!-- Generator: Adobe Illustrator 16.0.0, SVG Export Plug-In . SVG Version: 6.00 Build 0)  -->
<!DOCTYPE svg PUBLIC "-//W3C//DTD SVG 1.1//EN" "http://www.w3.org/Graphics/SVG/1.1/DTD/svg11.dtd">
<svg version="1.1" id="Layer_1" xmlns="http://www.w3.org/2000/svg" xmlns:xlink="http://www.w3.org/1999/xlink" x="0px" y="0px"
	 width="22px" height="19.981px" viewBox="0 0 22 19.981" enable-background="new 0 0 22 19.981" xml:space="preserve">
<path fill="#FFFFFF" d="M20.625,0H1.375C0.616,0,0,0.624,0,1.394v14.173c0,0.77,0.616,1.394,1.375,1.394h6.049l-1.121,1.936
	c-0.077,0.117-0.116,0.252-0.116,0.387c0,0.112,0.027,0.226,0.082,0.329c0.119,0.226,0.353,0.368,0.606,0.368h8.25
	c0.254,0,0.487-0.142,0.606-0.368c0.054-0.104,0.081-0.217,0.081-0.33c0-0.135-0.039-0.27-0.115-0.387l-1.121-1.936h6.049
	c0.759,0,1.375-0.624,1.375-1.394V1.394C22,0.624,21.384,0,20.625,0z M18.997,13.961H3.003V3h15.994V13.961z"/>
</svg>
