<?xml version="1.0" encoding="utf-8"?>
<!-- Generator: Adobe Illustrator 16.0.0, SVG Export Plug-In . SVG Version: 6.00 Build 0)  -->
<!DOCTYPE svg PUBLIC "-//W3C//DTD SVG 1.1//EN" "http://www.w3.org/Graphics/SVG/1.1/DTD/svg11.dtd">
<svg version="1.1" id="Layer_1" xmlns="http://www.w3.org/2000/svg" xmlns:xlink="http://www.w3.org/1999/xlink" x="0px" y="0px"
	 width="18.02px" height="21.037px" viewBox="0 0 18.02 21.037" enable-background="new 0 0 18.02 21.037" xml:space="preserve">
<path fill="#6DCE9A" d="M18.02,4.312v15.413c0,0.725-0.582,1.312-1.301,1.312H1.301C0.583,21.037,0,20.45,0,19.725V4.312
	C0,3.587,0.583,3,1.301,3h1.348L2.68,1.312C2.68,0.588,3.286,0,4.004,0C4.722,0,5.34,0.588,5.34,1.312L5.309,3h2.332l0.031-1.687
	C7.672,0.588,8.278,0,8.996,0s1.336,0.588,1.336,1.312L10.301,3h2.336l0.031-1.687C12.668,0.588,13.274,0,13.992,0
	s1.348,0.588,1.348,1.312L15.309,3h1.41C17.438,3,18.02,3.587,18.02,4.312z M15.028,8.035H2.992v1.008h12.036V8.035z M15.028,12.059
	H2.992v0.996h12.036V12.059z M15.028,16.013H2.992v1.027h12.036V16.013z"/>
</svg>
